<?xml version="1.0" encoding="utf-8"?>
<!-- Generator: Adobe Illustrator 16.0.0, SVG Export Plug-In . SVG Version: 6.00 Build 0)  -->
<!DOCTYPE svg PUBLIC "-//W3C//DTD SVG 1.1//EN" "http://www.w3.org/Graphics/SVG/1.1/DTD/svg11.dtd">
<svg version="1.1" id="Layer_1" xmlns="http://www.w3.org/2000/svg" xmlns:xlink="http://www.w3.org/1999/xlink" x="0px" y="0px"
	 width="249.69px" height="103.15px" viewBox="0 0 249.69 103.15" enable-background="new 0 0 249.69 103.15" xml:space="preserve">
<g id="Logo">
	<g>
		<path fill="#0F92CF" d="M87.17,72.03c-1.02,1.11-2.22,1.89-4.02,2.49c-1.06,0.32-2.03,0.32-2.96,0.32c-1.71,0-3.19-1.38-3.19-3.97
			c0-2.12,0.92-4.2,4.25-5.68c2.86-1.38,4.62-2.12,5.63-2.86v-2.4c-0.09-0.92-0.18-2.03-0.74-2.59c-0.46-0.51-1.29-0.69-2.31-0.69
			c-0.83,0-1.94,0.28-2.68,0.83c-0.65,0.46-0.19,1.15-0.19,2.26c0,1.66-0.83,2.68-2.77,2.68c-0.83,0-1.57-0.55-1.57-1.57
			c0-1.29,0.74-2.77,2.12-3.79c1.94-1.48,4.43-2.59,7.48-2.59c2.59,0,3.42,0.55,4.25,1.29c1.02,0.92,1.11,2.22,1.11,3.46l0.09,7.3
			v2.22c0,2.49,0.37,3.23,1.2,3.23c0.65,0,1.29-0.37,1.48-0.74c0.19-0.28,0.28-0.28,0.46-0.18l0.55,0.37
			c0.19,0.09,0.28,0.28,0.09,0.74c-0.46,0.83-1.57,2.68-4.25,2.68c-1.76,0-3.23-0.83-3.88-2.82H87.17z M86.89,64.04
			c-2.03,1.29-5.08,2.08-5.08,5.45c0,1.89,1.02,2.82,2.13,2.82c1.29-0.09,2.95-1.39,2.95-2.22V64.04z"/>
		<path fill="#0F92CF" d="M100.03,62.43c0-2.13-0.37-2.86-1.75-3.6l-0.83-0.46c-0.28-0.09-0.37-0.18-0.37-0.37v-0.28
			c0-0.18,0.09-0.28,0.37-0.42l5.59-2.63c0.28-0.09,0.46-0.18,0.74-0.18c0.28,0,0.37,0.28,0.42,0.55l0.42,3.33h0.19
			c1.57-2.59,3.51-4.16,5.54-4.16c1.48,0,2.4,1.02,2.4,2.31c0,1.29-1.29,2.49-2.5,2.49c-0.65,0-1.2-0.18-1.57-0.37
			c-0.37-0.28-0.83-0.37-1.29-0.37c-0.55,0-1.38,0.37-1.94,1.34c-0.37,0.65-0.55,1.67-0.55,2.26v8.91c0,1.48,0.37,1.94,1.3,1.94
			h2.03c0.28,0,0.37,0.09,0.37,0.32v1.06c0,0.23-0.09,0.32-0.32,0.32c-0.32,0-2.36-0.14-5.73-0.14c-3.23,0-5.03,0.14-5.4,0.14
			c-0.23,0-0.32-0.09-0.32-0.32V73.1c0-0.28,0.09-0.37,0.42-0.37h1.62c0.74,0,1.2-0.37,1.2-1.25V62.43z"/>
		<path fill="#0F92CF" d="M130.14,70.74c0.14,0.14,0.19,0.32,0,0.55c-1.15,1.43-4.39,3.56-7.81,3.56c-3.14,0-5.64-0.83-7.39-3.05
			c-1.76-2.22-2.22-4.06-2.22-6.37c0-2.91,1.11-6.14,3.42-8.27c1.94-1.76,4.16-2.68,6.74-2.68c5.36,0,6.56,2.77,6.56,4.16
			c0,1.11-0.74,2.03-2.03,2.03c-1.57,0-2.31-1.11-2.77-2.31c-0.65-1.57-1.66-1.89-2.86-1.89c-1.85,0-4.16,2.08-4.16,5.36
			c0,2.77,0.09,4.67,1.8,7.48c1.25,2.03,3.28,2.49,4.76,2.49c2.31,0,3.74-0.78,4.99-1.75c0.09-0.09,0.28-0.09,0.42,0.05
			L130.14,70.74z"/>
		<path fill="#0F92CF" d="M147.32,64.18c0-2.4,0-4.99-1.2-6.19c-0.74-0.74-1.48-1.11-2.59-1.11c-1.2,0-2.4,0.65-3.42,1.66
			c-0.37,0.46-0.83,1.39-0.83,2.26v9.98c0,1.48,0.19,1.94,0.83,1.94h1.11c0.28,0,0.46,0.09,0.46,0.42v0.83
			c0,0.28-0.09,0.46-0.37,0.46c-0.37,0-2.4-0.14-4.8-0.14c-2.86,0-4.62,0.14-4.99,0.14c-0.23,0-0.37-0.09-0.37-0.37v-1.02
			c0-0.23,0.19-0.32,0.42-0.32h1.16c0.74,0,1.39-0.19,1.52-0.74c0.18-0.92,0.23-3.6,0.23-5.73l-0.09-16.49
			c0-2.59-0.56-3.51-2.12-4.16l-0.83-0.28c-0.28-0.09-0.37-0.18-0.37-0.37V44.5c0-0.19,0.09-0.28,0.65-0.55
			c1.38-0.37,4.53-1.94,6-2.68c0.55-0.19,0.83-0.37,1.29-0.37c0.37,0,0.46,0.37,0.37,1.11c-0.09,0.83-0.09,10.16-0.09,12.42v2.86
			h0.28c1.29-1.8,3.79-2.82,5.96-2.82c2.03,0,3.23,0.65,4.62,1.85c2.12,1.85,2.03,4.16,2.03,6.79v2.77v6.1
			c0,0.65,0.83,0.74,1.57,0.74h0.83c0.37,0,0.46,0.09,0.46,0.32v1.02c0,0.23-0.09,0.37-0.37,0.37c-0.28,0-1.75-0.14-4.57-0.14
			c-2.77,0-4.43,0.14-4.9,0.14c-0.28,0-0.37-0.09-0.37-0.32V73c0-0.19,0.09-0.28,0.33-0.28h0.78c0.55,0,1.2-0.19,1.29-0.92
			c0.09-0.65,0.09-3.05,0.09-4.53V64.18z"/>
		<path fill="#0F92CF" d="M160.84,64.04c0,4.71,3.37,7.48,6,7.48c2.86,0,4.62-1.2,5.59-2.68c0.18-0.32,0.37-0.32,0.55-0.23
			l0.69,0.41c0.23,0.14,0.32,0.32,0,0.92c-0.97,1.76-3.32,4.9-8.41,4.9c-2.96,0-5.04-0.65-6.65-2.5c-2.12-2.45-2.59-4.76-2.59-7.62
			c0-2.54,0.28-4.25,2.26-6.83c1.94-2.5,4.02-3.42,8.04-3.42c5.26,0,6.97,5.5,6.97,7.39c0,0.69-0.46,0.74-1.29,0.74h-11.18V64.04z
			 M166.57,60.95c0.97,0,1.52-0.28,1.52-0.65c0-1.39-0.46-4.11-2.86-4.11c-2.26,0-3.65,1.66-4.25,4.76H166.57z"/>
		<path fill="#0F92CF" d="M178.02,62.43c0-2.13-0.37-2.86-1.75-3.6l-0.83-0.46c-0.28-0.09-0.37-0.18-0.37-0.37v-0.28
			c0-0.18,0.09-0.28,0.37-0.42l5.59-2.63c0.28-0.09,0.46-0.18,0.74-0.18c0.28,0,0.37,0.28,0.41,0.55l0.42,3.33h0.18
			c1.57-2.59,3.51-4.16,5.54-4.16c1.48,0,2.4,1.02,2.4,2.31c0,1.29-1.29,2.49-2.49,2.49c-0.65,0-1.2-0.18-1.57-0.37
			c-0.37-0.28-0.83-0.37-1.29-0.37c-0.55,0-1.39,0.37-1.94,1.34c-0.37,0.65-0.55,1.67-0.55,2.26v8.91c0,1.48,0.37,1.94,1.29,1.94
			h2.03c0.28,0,0.37,0.09,0.37,0.32v1.06c0,0.23-0.09,0.32-0.32,0.32c-0.32,0-2.36-0.14-5.73-0.14c-3.23,0-5.04,0.14-5.4,0.14
			c-0.23,0-0.32-0.09-0.32-0.32V73.1c0-0.28,0.09-0.37,0.42-0.37h1.62c0.74,0,1.2-0.37,1.2-1.25V62.43z"/>
		<path fill="#0F92CF" d="M191.29,84.37c0-1.29,1.02-2.31,2.22-2.31c0.74,0,1.48,0.28,2.03,0.55c0.37,0.19,0.92,0.19,1.2-0.09
			c0.56-0.55,2.96-5.64,3.51-7.39c-0.28-1.39-5.63-15.8-5.96-16.58c-0.51-1.2-0.97-1.94-1.89-1.94h-0.92
			c-0.28,0-0.37-0.14-0.37-0.37v-1.02c0-0.18,0.09-0.32,0.37-0.32c0.37,0,1.48,0.14,4.89,0.14c2.68,0,4.07-0.14,4.62-0.14
			c0.28,0,0.37,0.09,0.37,0.37v1.01c0,0.19-0.09,0.32-0.32,0.32h-0.69c-0.46,0-0.83,0.28-0.69,0.97c0.14,0.92,2.91,10.35,3.37,11.36
			h0.18c0.83-1.76,4.06-9.61,4.3-10.58c0.28-1.2-0.14-1.75-0.97-1.75h-0.74c-0.28,0-0.37-0.14-0.37-0.32v-1.01
			c0-0.23,0.09-0.37,0.37-0.37c0.55,0,1.48,0.14,3.97,0.14c1.57,0,2.68-0.14,3.09-0.14c0.23,0,0.32,0.14,0.32,0.37v0.97
			c0,0.28-0.09,0.37-0.28,0.37h-0.55c-0.46,0-1.15,0.14-1.66,0.79c-0.92,1.2-4.06,8.13-7.39,15.61c-2.31,4.99-4.25,9.33-5.08,10.81
			c-0.74,1.2-1.66,3.05-4.16,3.05C192.4,86.86,191.29,85.84,191.29,84.37z"/>
	</g>
	<g>
		<path fill="#C42033" d="M225.93,50.48c-0.13,0-0.22,0.04-0.27,0.13c-0.05,0.09-0.08,0.21-0.09,0.35h-0.29v-3.4h0.29
			c0.03,0.29,0.15,0.44,0.36,0.44h7.16v0.29c-0.26,0.02-0.39,0.15-0.39,0.41v4.03c0,0.11,0.02,0.21,0.05,0.29
			c0.03,0.08,0.11,0.12,0.24,0.12h0.12v0.29c-2.2,1.17-4.8,1.75-7.81,1.75c-1.02,0-2-0.12-2.95-0.38c-0.95-0.25-1.78-0.64-2.51-1.17
			c-0.73-0.53-1.31-1.21-1.76-2.03c-0.45-0.82-0.67-1.78-0.67-2.87c0-1.1,0.22-2.06,0.67-2.87c0.45-0.82,1.03-1.5,1.76-2.04
			c0.73-0.54,1.57-0.95,2.51-1.21c0.95-0.27,1.93-0.4,2.95-0.4c0.4,0,0.76,0.01,1.07,0.02c0.31,0.02,0.61,0.05,0.9,0.1
			c0.29,0.05,0.59,0.11,0.9,0.18c0.31,0.07,0.67,0.17,1.09,0.28c0.4,0.11,0.78,0.25,1.12,0.4c0.34,0.16,0.56,0.23,0.66,0.23
			c0.13,0,0.24-0.07,0.34-0.2l0.29,0.1l-1.58,3.2l-0.29-0.17c0.03-0.1,0.05-0.19,0.05-0.27c0-0.11-0.14-0.24-0.41-0.38
			c-0.28-0.14-0.62-0.26-1.04-0.38c-0.42-0.11-0.89-0.21-1.42-0.29c-0.53-0.08-1.04-0.12-1.54-0.12c-0.58,0-1.14,0.08-1.66,0.23
			c-0.52,0.15-0.99,0.39-1.4,0.71c-0.41,0.33-0.74,0.72-0.98,1.2c-0.24,0.48-0.36,1.05-0.36,1.71c0,0.65,0.14,1.21,0.43,1.69
			c0.29,0.48,0.66,0.87,1.1,1.18c0.45,0.31,0.94,0.53,1.49,0.68c0.55,0.15,1.09,0.22,1.62,0.22c0.68,0,1.29-0.04,1.83-0.12
			c0.54-0.08,1.06-0.2,1.56-0.34v-1.61H225.93z"/>
		<path fill="#C42033" d="M236,42.8c-0.07-0.07-0.26-0.13-0.57-0.16v-0.29h9.24c0.66,0,1.27,0.06,1.82,0.19
			c0.55,0.13,1.03,0.33,1.43,0.6c0.4,0.27,0.72,0.62,0.94,1.04c0.23,0.43,0.34,0.94,0.34,1.54c0,0.73-0.22,1.31-0.66,1.76
			c-0.43,0.45-0.99,0.74-1.67,0.89v0.05c0.82,0.23,1.5,0.58,2.02,1.04c0.53,0.47,0.79,1.16,0.79,2.06c0,0.49-0.09,0.95-0.28,1.38
			c-0.19,0.44-0.48,0.82-0.87,1.14c-0.4,0.32-0.91,0.58-1.53,0.78c-0.62,0.19-1.36,0.29-2.22,0.29h-9.36v-0.29
			c0.31-0.03,0.5-0.09,0.57-0.16s0.11-0.17,0.11-0.28V43.08C236.11,42.96,236.08,42.87,236,42.8z M243.06,47.15
			c0.52,0,0.95-0.01,1.29-0.04c0.34-0.02,0.61-0.08,0.8-0.16c0.19-0.08,0.33-0.19,0.41-0.34c0.08-0.15,0.12-0.34,0.12-0.58
			c0-0.24-0.04-0.44-0.12-0.58c-0.08-0.15-0.22-0.26-0.41-0.34c-0.19-0.08-0.46-0.13-0.8-0.16c-0.34-0.03-0.77-0.04-1.29-0.04h-3.3
			v2.24H243.06z M243.88,52.54c0.87,0,1.49-0.11,1.84-0.33c0.36-0.22,0.53-0.59,0.53-1.13c0-0.53-0.18-0.91-0.53-1.13
			c-0.35-0.22-0.97-0.33-1.84-0.33h-4.12v2.92H243.88z"/>
	</g>
	<g>
		<path fill="#C42033" d="M39.41,5.45C45.56,9.23,51,14.68,55.46,20.29c4.15,5.23,7.25,10.87,9.05,17.32
			c2.42,8.69,2.41,17.92,0.62,26.72c-2.45,12.09-8.35,23.26-15.34,33.31c-0.31,0.45,1.69,4.16,2.49,5.11
			c11.82-16.99,20.08-37.69,15.21-58.56C64.34,30.7,56.82,18.04,46.93,8.39c-2.97-2.9-6.23-5.74-9.78-7.93
			C37.28,1.74,38.62,4.97,39.41,5.45L39.41,5.45z"/>
		<path fill="#C42033" d="M52.29,103.15l-0.2-0.24c-0.61-0.73-2.98-4.71-2.5-5.4c8.13-11.69,13.14-22.55,15.3-33.23
			c1.88-9.23,1.66-18.43-0.62-26.6c-1.7-6.1-4.65-11.74-9-17.23c-5.1-6.42-10.48-11.4-15.99-14.79c-0.88-0.54-2.24-3.86-2.38-5.17
			L36.85,0l0.42,0.26c3.07,1.89,6.19,4.42,9.82,7.96c10.23,9.98,17.55,22.73,20.63,35.92c5.32,22.79-5.36,44.53-15.25,58.75
			L52.29,103.15z M37.48,0.96c0.35,1.44,1.45,3.91,2.05,4.29c5.56,3.42,10.98,8.43,16.11,14.9c4.4,5.54,7.37,11.24,9.09,17.4
			c2.3,8.25,2.52,17.53,0.63,26.83c-2.18,10.74-7.21,21.66-15.38,33.41c-0.09,0.4,1.37,3.32,2.28,4.56
			C62.05,88.2,72.5,66.72,67.25,44.25C64.2,31.15,56.92,18.48,46.76,8.56C43.34,5.23,40.37,2.8,37.48,0.96z"/>
	</g>
	<g>
		<path fill="#0F92CF" d="M6,61.94"/>
		<g>
			<path fill="#0F92CF" d="M10.11,60.84c5.83-3.5,12.06-6.42,18.26-9.21c6.92-3.12,13.97-5.93,21.11-8.49
				c4.45-1.6,8.94-3.07,13.46-4.46c2.06-0.63,4.39-1.32,6.3-1.84c-1.88,0.51-0.13,0.04,0.15-0.03c0.61-0.15,1.22-0.31,1.83-0.46
				c1.52-0.38,3.04-0.73,4.57-1.08c45.39-10.39,95.02-8.35,139.12,7.16c1.66-1.78,3.99-2.96,6.37-3.32
				c-26.11-9.18-53.58-13.23-81.23-12.88c-23.03,0.29-45.82,3.95-68.06,9.8c-17.35,4.56-34.36,10.06-50.77,17.34
				c-6.56,2.91-13.13,5.99-19.3,9.67c0,0-0.01,0.01-0.02,0.01C3.54,62.93,5.85,63.17,10.11,60.84L10.11,60.84z"/>
			<path fill="#0F92CF" d="M0,63.65l1.64-1.03c6.44-3.84,13.4-7.06,19.37-9.7c14.86-6.59,31.49-12.27,50.84-17.36
				c23.7-6.24,46.64-9.54,68.17-9.81c1.11-0.01,2.22-0.02,3.33-0.02c27.4,0,53.67,4.35,78.07,12.93l1.83,0.64l-1.91,0.29
				c-2.32,0.35-4.54,1.51-6.08,3.17l-0.21,0.23l-0.3-0.11c-25.61-9-53.04-13.57-81.54-13.57c-19.4,0-38.68,2.16-57.31,6.43
				c-1.34,0.31-2.93,0.67-4.56,1.08l-0.06,0.02c-0.59,0.14-1.18,0.29-1.77,0.44c-0.09,0.02-0.36,0.1-0.6,0.16l-0.29,0.08
				c-1.97,0.55-4.1,1.19-5.54,1.63c-4.77,1.46-9.16,2.92-13.43,4.45c-7.36,2.64-14.45,5.5-21.07,8.48
				c-5.64,2.54-12.17,5.56-18.21,9.18c-3.83,2.09-6.12,2.18-7.78,2.24c-0.23,0.01-0.45,0.02-0.66,0.03L0,63.65z M35.4,48.06
				c-4.84,1.83-9.5,3.75-13.99,5.74c-5.41,2.4-11.65,5.28-17.54,8.65c1.44-0.14,3.32-0.56,6.02-2.03
				c6.07-3.64,12.62-6.67,18.29-9.22C30.52,50.13,32.93,49.09,35.4,48.06z M133.2,28.35c28.5,0,55.94,4.55,81.57,13.52
				c1.29-1.3,2.96-2.3,4.76-2.86c-23.85-8.18-49.47-12.33-76.17-12.33c-1.11,0-2.21,0.01-3.32,0.02
				c-13.05,0.17-26.61,1.45-40.56,3.83C110.61,29.08,121.89,28.35,133.2,28.35z"/>
		</g>
	</g>
	<g>
		<path fill="#C42033" d="M45.26,99.16c0,0.35-0.06,0.67-0.19,0.98c-0.13,0.3-0.31,0.56-0.53,0.79c-0.23,0.22-0.49,0.4-0.79,0.53
			c-0.3,0.13-0.63,0.19-0.98,0.19c-0.36,0-0.69-0.06-1-0.19c-0.3-0.12-0.56-0.3-0.78-0.51c-0.22-0.22-0.39-0.48-0.51-0.78
			c-0.12-0.3-0.18-0.63-0.18-0.99c0-0.35,0.06-0.67,0.19-0.97c0.13-0.3,0.31-0.56,0.53-0.78c0.22-0.22,0.49-0.4,0.79-0.53
			c0.3-0.13,0.63-0.19,0.98-0.19c0.36,0,0.69,0.06,0.99,0.18c0.3,0.12,0.56,0.29,0.78,0.51c0.22,0.22,0.39,0.48,0.51,0.78
			C45.2,98.47,45.26,98.8,45.26,99.16z M44.69,99.19c0-0.3-0.05-0.57-0.14-0.82c-0.09-0.25-0.23-0.46-0.4-0.63
			c-0.17-0.18-0.37-0.31-0.6-0.4c-0.23-0.09-0.49-0.14-0.76-0.14c-0.29,0-0.56,0.05-0.79,0.15c-0.24,0.1-0.44,0.24-0.61,0.42
			c-0.17,0.18-0.3,0.38-0.39,0.62c-0.09,0.23-0.14,0.49-0.14,0.75c0,0.3,0.05,0.57,0.14,0.81c0.1,0.25,0.23,0.46,0.4,0.63
			c0.17,0.17,0.37,0.31,0.6,0.41c0.23,0.1,0.48,0.14,0.76,0.14c0.29,0,0.56-0.05,0.79-0.16c0.24-0.1,0.44-0.24,0.61-0.42
			c0.17-0.18,0.29-0.38,0.39-0.62C44.65,99.71,44.69,99.46,44.69,99.19z M43.94,100.36c0,0.02,0,0.03-0.01,0.05
			c-0.01,0.01-0.02,0.03-0.05,0.03c-0.02,0.01-0.06,0.01-0.11,0.02c-0.05,0-0.11,0-0.19,0c-0.07,0-0.13,0-0.17,0
			c-0.04,0-0.08-0.01-0.11-0.02c-0.03-0.01-0.05-0.03-0.06-0.04c-0.01-0.02-0.03-0.05-0.04-0.08l-0.13-0.44
			c-0.05-0.16-0.11-0.26-0.18-0.33c-0.07-0.06-0.17-0.09-0.31-0.09h-0.17v0.89c0,0.05-0.02,0.08-0.05,0.1
			c-0.04,0.01-0.12,0.02-0.25,0.02c-0.13,0-0.22-0.01-0.26-0.02c-0.04-0.02-0.06-0.05-0.06-0.1v-2.28c0-0.09,0.02-0.17,0.07-0.22
			c0.05-0.05,0.12-0.08,0.21-0.08h0.73c0.17,0,0.32,0.02,0.45,0.04c0.13,0.03,0.24,0.08,0.33,0.14c0.09,0.06,0.16,0.14,0.21,0.24
			c0.05,0.1,0.07,0.21,0.07,0.34c0,0.2-0.06,0.36-0.17,0.47c-0.11,0.11-0.26,0.19-0.44,0.24c0.1,0.04,0.2,0.09,0.29,0.17
			c0.09,0.08,0.17,0.2,0.23,0.36l0.15,0.41C43.93,100.27,43.94,100.33,43.94,100.36z M43.15,98.6c0-0.05,0-0.09-0.02-0.13
			s-0.04-0.08-0.07-0.11c-0.04-0.03-0.08-0.06-0.14-0.07c-0.06-0.02-0.13-0.03-0.22-0.03h-0.29v0.71h0.28c0.18,0,0.3-0.04,0.37-0.1
			C43.12,98.8,43.15,98.71,43.15,98.6z"/>
	</g>
</g>
<g>
</g>
<g>
</g>
<g>
</g>
<g>
</g>
<g>
</g>
<g>
</g>
</svg>
