<?xml version="1.0" encoding="UTF-8" standalone="no"?>
<!DOCTYPE svg PUBLIC "-//W3C//DTD SVG 1.1//EN" "http://www.w3.org/Graphics/SVG/1.1/DTD/svg11.dtd">
<svg width="100%" height="100%" viewBox="0 0 2000 2000" version="1.1" xmlns="http://www.w3.org/2000/svg" xmlns:xlink="http://www.w3.org/1999/xlink" xml:space="preserve" xmlns:serif="http://www.serif.com/" style="fill-rule:evenodd;clip-rule:evenodd;stroke-linejoin:round;stroke-miterlimit:2;">
    <g transform="matrix(2.45485,0,0,2.45485,-1454.94,-1345.13)">
        <path d="M1007,1352C1011,1346 1029,1314 1036,1298C1051,1268 1054,1254 1054,1222C1054,1210 1054,1199 1053,1195C1052,1188 1053,1182 1056,1178C1057,1177 1063,1171 1069,1166C1088,1149 1099,1139 1105,1131C1112,1124 1110,1128 1142,1057C1150,1040 1161,1015 1167,1002C1173,988 1179,974 1181,970C1184,960 1185,951 1183,947C1180,943 1178,942 1170,942C1165,942 1163,941 1162,940C1162,940 1167,936 1172,933C1192,921 1208,902 1228,868C1240,848 1252,820 1250,818C1248,817 1194,837 1172,847C1154,855 1137,869 1121,887C1112,898 1099,917 1093,927C1086,940 1072,980 1034,1093L1003,1185L1003,1270C1003,1322 1003,1355 1004,1355C1004,1355 1006,1354 1007,1352ZM998,1269L998,1186L968,1099C930,985 916,945 908,930C900,913 880,887 864,872C848,857 835,849 803,836C780,828 751,818 750,818C748,820 767,859 780,880C797,907 811,923 828,933C833,936 838,940 838,941C838,942 836,942 831,942C822,941 819,943 817,949C816,954 817,963 820,972C821,975 832,999 844,1025C855,1050 869,1081 874,1093C880,1105 885,1117 887,1120C891,1128 901,1139 918,1154C925,1160 935,1169 939,1172C948,1181 949,1184 947,1197C944,1217 946,1247 951,1266C955,1280 971,1314 988,1343C994,1354 996,1356 997,1354C998,1354 998,1316 998,1269ZM998,1167L998,923L988,923C975,922 960,919 951,917C947,916 941,915 937,915C925,915 918,909 914,895C906,868 900,854 892,844C883,833 870,825 856,822C850,821 816,816 791,814C769,812 753,811 755,813C755,813 759,815 763,816C798,827 838,844 852,854C875,870 906,909 917,935C929,964 949,1023 982,1123C995,1164 997,1167 998,1167ZM1005,1162C1006,1158 1046,1040 1056,1009C1069,973 1081,940 1085,931C1094,911 1118,880 1135,865C1147,855 1158,848 1173,841C1186,835 1215,824 1234,817C1240,815 1245,813 1245,813C1248,811 1219,813 1190,816C1142,822 1140,822 1129,827C1121,831 1115,836 1109,844C1100,854 1094,868 1085,897C1082,910 1075,915 1063,915C1059,915 1052,916 1048,917C1038,919 1022,922 1011,923L1003,923L1003,1045C1003,1119 1003,1166 1004,1166C1004,1165 1005,1164 1005,1162ZM1034,917C1039,916 1046,914 1050,913L1058,911L1058,872C1058,848 1058,830 1057,828C1056,826 1055,823 1053,821L1050,818L1042,819C1016,825 989,825 961,820L951,819L947,822C942,828 942,832 942,873L942,911L947,912C953,914 965,917 973,918C983,919 1024,918 1034,917ZM1015,820C1019,820 1027,819 1032,818L1040,817L1040,695C1040,592 1040,572 1039,570C1037,565 1030,560 1022,558C1012,555 991,555 982,557C974,560 968,563 965,567L962,571L962,694C962,803 962,817 963,817C965,818 981,820 987,820C995,821 1006,821 1015,820Z" style="fill:rgb(243,132,32);fill-rule:nonzero;stroke:black;stroke-width:11.41px;"/>
    </g>
</svg>
